<svg width="54" height="14" viewBox="0 0 54 14" fill="none" xmlns="http://www.w3.org/2000/svg">
<path d="M2.3413 6.152C2.9333 5.64 3.5893 5.384 4.3093 5.384C5.0293 5.384 5.5213 5.664 5.7853 6.224C6.4173 5.664 7.0813 5.384 7.7773 5.384C8.2893 5.384 8.6933 5.52 8.9893 5.792C9.2933 6.064 9.4453 6.42 9.4453 6.86V11H8.4253V6.908C8.4253 6.7 8.3493 6.54 8.1973 6.428C8.0453 6.316 7.8413 6.26 7.5853 6.26C7.0653 6.26 6.5093 6.472 5.9173 6.896V11H4.8973V6.908C4.8973 6.7 4.8213 6.54 4.6693 6.428C4.5173 6.316 4.3133 6.26 4.0573 6.26C3.5213 6.26 2.9733 6.464 2.4133 6.872V11H1.3933V5.528H2.0413L2.3413 6.152ZM15.0199 10.184V11H10.8079L10.5799 10.664L13.7359 6.344H11.0599L10.9639 5.528H14.8879L15.1039 5.912L12.0319 10.184H15.0199ZM19.3816 7.724V7.196C19.3816 6.548 19.0456 6.224 18.3736 6.224C17.8456 6.224 17.2936 6.396 16.7176 6.74L16.3696 6.02C17.0416 5.596 17.7656 5.384 18.5416 5.384C19.0856 5.384 19.5296 5.524 19.8736 5.804C20.2256 6.076 20.4016 6.5 20.4016 7.076V11H19.7536L19.4536 10.28C19.1976 10.544 18.8936 10.756 18.5416 10.916C18.1896 11.068 17.8696 11.144 17.5816 11.144C17.0856 11.144 16.6896 11.008 16.3936 10.736C16.0976 10.464 15.9496 10.108 15.9496 9.668C15.9496 8.372 17.0936 7.724 19.3816 7.724ZM17.3896 8.888C17.2376 9.024 17.1336 9.148 17.0776 9.26C17.0296 9.364 17.0056 9.504 17.0056 9.68C17.0056 9.848 17.0776 9.996 17.2216 10.124C17.3736 10.244 17.5696 10.304 17.8096 10.304C18.3136 10.304 18.8376 10.08 19.3816 9.632V8.432C18.3736 8.448 17.7096 8.6 17.3896 8.888ZM26.7089 13.76H25.7249V10.424C25.2289 10.904 24.6409 11.144 23.9609 11.144C23.2809 11.144 22.7329 10.908 22.3169 10.436C21.9089 9.956 21.7049 9.292 21.7049 8.444C21.7049 7.588 21.9529 6.864 22.4489 6.272C22.9449 5.68 23.5849 5.384 24.3689 5.384C24.8169 5.384 25.2689 5.504 25.7249 5.744L26.7089 5.384V13.76ZM24.6209 6.2C24.0209 6.2 23.5569 6.416 23.2289 6.848C22.9009 7.272 22.7369 7.78 22.7369 8.372C22.7369 8.956 22.8729 9.428 23.1449 9.788C23.4169 10.14 23.7849 10.316 24.2489 10.316C24.7209 10.316 25.2129 10.088 25.7249 9.632V6.416C25.3489 6.272 24.9809 6.2 24.6209 6.2ZM29.4613 4.244C29.3333 4.372 29.1773 4.436 28.9933 4.436C28.8093 4.436 28.6533 4.372 28.5253 4.244C28.3973 4.108 28.3333 3.948 28.3333 3.764C28.3333 3.58 28.3973 3.424 28.5253 3.296C28.6613 3.16 28.8173 3.092 28.9933 3.092C29.1693 3.092 29.3213 3.16 29.4493 3.296C29.5853 3.424 29.6533 3.58 29.6533 3.764C29.6533 3.948 29.5893 4.108 29.4613 4.244ZM28.4893 5.528H29.5093V11H28.4893V5.528Z" fill="black"/>
<rect x="32" width="22" height="14" rx="2" fill="url(#paint0_linear_304_997)"/>
<path d="M34.8948 10.928C34.7748 11.048 34.6268 11.108 34.4508 11.108C34.2748 11.108 34.1268 11.048 34.0068 10.928C33.8868 10.8 33.8268 10.644 33.8268 10.46C33.8268 10.276 33.8868 10.124 34.0068 10.004C34.1268 9.884 34.2748 9.824 34.4508 9.824C34.6268 9.824 34.7748 9.884 34.8948 10.004C35.0228 10.124 35.0868 10.276 35.0868 10.46C35.0868 10.644 35.0228 10.8 34.8948 10.928ZM39.9953 2.384H40.9793V11H40.3313L40.0313 10.28C39.4313 10.856 38.8113 11.144 38.1713 11.144C37.5393 11.144 37.0153 10.9 36.5993 10.412C36.1833 9.916 35.9753 9.248 35.9753 8.408C35.9753 7.568 36.2233 6.868 36.7193 6.308C37.2153 5.74 37.8553 5.456 38.6393 5.456C39.0633 5.456 39.5153 5.552 39.9953 5.744V2.384ZM38.8913 6.272C38.2913 6.272 37.8273 6.476 37.4993 6.884C37.1713 7.292 37.0073 7.788 37.0073 8.372C37.0073 8.956 37.1433 9.424 37.4153 9.776C37.6873 10.128 38.0393 10.304 38.4713 10.304C38.7113 10.304 38.9673 10.24 39.2393 10.112C39.5193 9.976 39.7713 9.792 39.9953 9.56V6.488C39.6193 6.344 39.2513 6.272 38.8913 6.272ZM44.8588 10.304C45.4348 10.304 46.0108 10.132 46.5868 9.788L46.9348 10.508C46.2628 10.932 45.5428 11.144 44.7748 11.144C44.0148 11.144 43.4108 10.904 42.9628 10.424C42.5148 9.936 42.2908 9.236 42.2908 8.324C42.2908 7.412 42.5228 6.696 42.9868 6.176C43.4508 5.648 44.0668 5.384 44.8348 5.384C45.5308 5.384 46.0788 5.6 46.4788 6.032C46.6468 6.208 46.7868 6.464 46.8988 6.8C47.0188 7.136 47.0788 7.532 47.0788 7.988L46.7068 8.408H43.3108C43.3348 9.672 43.8508 10.304 44.8588 10.304ZM46.0708 7.652C46.0708 7.204 45.9548 6.844 45.7228 6.572C45.4908 6.3 45.1828 6.164 44.7988 6.164C44.4228 6.164 44.1028 6.3 43.8388 6.572C43.5748 6.836 43.4148 7.196 43.3588 7.652H46.0708ZM50.5667 11H49.4387L47.5307 5.528H48.5627L49.9787 9.908H50.0267L51.4427 5.528H52.4747L50.5667 11Z" fill="white"/>
<defs>
<linearGradient id="paint0_linear_304_997" x1="32" y1="7.41176" x2="54" y2="7.41177" gradientUnits="userSpaceOnUse">
<stop stop-color="#4085F3"/>
<stop offset="1" stop-color="#20B6D2"/>
</linearGradient>
</defs>
</svg>
