<svg width="71" height="18" viewBox="0 0 71 18" fill="none" xmlns="http://www.w3.org/2000/svg">
<path d="M22.8081 7.152C23.4001 6.64 24.0561 6.384 24.7761 6.384C25.4961 6.384 25.9881 6.664 26.2521 7.224C26.8841 6.664 27.5481 6.384 28.2441 6.384C28.7561 6.384 29.1601 6.52 29.4561 6.792C29.7601 7.064 29.9121 7.42 29.9121 7.86V12H28.8921V7.908C28.8921 7.7 28.8161 7.54 28.6641 7.428C28.5121 7.316 28.3081 7.26 28.0521 7.26C27.5321 7.26 26.9761 7.472 26.3841 7.896V12H25.3641V7.908C25.3641 7.7 25.2881 7.54 25.1361 7.428C24.9841 7.316 24.7801 7.26 24.5241 7.26C23.9881 7.26 23.4401 7.464 22.8801 7.872V12H21.8601V6.528H22.5081L22.8081 7.152ZM35.4867 11.184V12H31.2747L31.0467 11.664L34.2027 7.344H31.5267L31.4307 6.528H35.3547L35.5707 6.912L32.4987 11.184H35.4867ZM39.8484 8.724V8.196C39.8484 7.548 39.5124 7.224 38.8404 7.224C38.3124 7.224 37.7604 7.396 37.1844 7.74L36.8364 7.02C37.5084 6.596 38.2324 6.384 39.0084 6.384C39.5524 6.384 39.9964 6.524 40.3404 6.804C40.6924 7.076 40.8684 7.5 40.8684 8.076V12H40.2204L39.9204 11.28C39.6644 11.544 39.3604 11.756 39.0084 11.916C38.6564 12.068 38.3364 12.144 38.0484 12.144C37.5524 12.144 37.1564 12.008 36.8604 11.736C36.5644 11.464 36.4164 11.108 36.4164 10.668C36.4164 9.372 37.5604 8.724 39.8484 8.724ZM37.8564 9.888C37.7044 10.024 37.6004 10.148 37.5444 10.26C37.4964 10.364 37.4724 10.504 37.4724 10.68C37.4724 10.848 37.5444 10.996 37.6884 11.124C37.8404 11.244 38.0364 11.304 38.2764 11.304C38.7804 11.304 39.3044 11.08 39.8484 10.632V9.432C38.8404 9.448 38.1764 9.6 37.8564 9.888ZM47.1757 14.76H46.1917V11.424C45.6957 11.904 45.1077 12.144 44.4277 12.144C43.7477 12.144 43.1997 11.908 42.7837 11.436C42.3757 10.956 42.1717 10.292 42.1717 9.444C42.1717 8.588 42.4197 7.864 42.9157 7.272C43.4117 6.68 44.0517 6.384 44.8357 6.384C45.2837 6.384 45.7357 6.504 46.1917 6.744L47.1757 6.384V14.76ZM45.0877 7.2C44.4877 7.2 44.0237 7.416 43.6957 7.848C43.3677 8.272 43.2037 8.78 43.2037 9.372C43.2037 9.956 43.3397 10.428 43.6117 10.788C43.8837 11.14 44.2517 11.316 44.7157 11.316C45.1877 11.316 45.6797 11.088 46.1917 10.632V7.416C45.8157 7.272 45.4477 7.2 45.0877 7.2ZM49.9281 5.244C49.8001 5.372 49.6441 5.436 49.4601 5.436C49.2761 5.436 49.1201 5.372 48.9921 5.244C48.8641 5.108 48.8001 4.948 48.8001 4.764C48.8001 4.58 48.8641 4.424 48.9921 4.296C49.1281 4.16 49.2841 4.092 49.4601 4.092C49.6361 4.092 49.7881 4.16 49.9161 4.296C50.0521 4.424 50.1201 4.58 50.1201 4.764C50.1201 4.948 50.0561 5.108 49.9281 5.244ZM48.9561 6.528H49.9761V12H48.9561V6.528ZM52.3655 11.928C52.2455 12.048 52.0975 12.108 51.9215 12.108C51.7455 12.108 51.5975 12.048 51.4775 11.928C51.3575 11.8 51.2975 11.644 51.2975 11.46C51.2975 11.276 51.3575 11.124 51.4775 11.004C51.5975 10.884 51.7455 10.824 51.9215 10.824C52.0975 10.824 52.2455 10.884 52.3655 11.004C52.4935 11.124 52.5575 11.276 52.5575 11.46C52.5575 11.644 52.4935 11.8 52.3655 11.928ZM57.466 3.384H58.45V12H57.802L57.502 11.28C56.902 11.856 56.282 12.144 55.642 12.144C55.01 12.144 54.486 11.9 54.07 11.412C53.654 10.916 53.446 10.248 53.446 9.408C53.446 8.568 53.694 7.868 54.19 7.308C54.686 6.74 55.326 6.456 56.11 6.456C56.534 6.456 56.986 6.552 57.466 6.744V3.384ZM56.362 7.272C55.762 7.272 55.298 7.476 54.97 7.884C54.642 8.292 54.478 8.788 54.478 9.372C54.478 9.956 54.614 10.424 54.886 10.776C55.158 11.128 55.51 11.304 55.942 11.304C56.182 11.304 56.438 11.24 56.71 11.112C56.99 10.976 57.242 10.792 57.466 10.56V7.488C57.09 7.344 56.722 7.272 56.362 7.272ZM62.3295 11.304C62.9055 11.304 63.4815 11.132 64.0575 10.788L64.4055 11.508C63.7335 11.932 63.0135 12.144 62.2455 12.144C61.4855 12.144 60.8815 11.904 60.4335 11.424C59.9855 10.936 59.7615 10.236 59.7615 9.324C59.7615 8.412 59.9935 7.696 60.4575 7.176C60.9215 6.648 61.5375 6.384 62.3055 6.384C63.0015 6.384 63.5495 6.6 63.9495 7.032C64.1175 7.208 64.2575 7.464 64.3695 7.8C64.4895 8.136 64.5495 8.532 64.5495 8.988L64.1775 9.408H60.7815C60.8055 10.672 61.3215 11.304 62.3295 11.304ZM63.5415 8.652C63.5415 8.204 63.4255 7.844 63.1935 7.572C62.9615 7.3 62.6535 7.164 62.2695 7.164C61.8935 7.164 61.5735 7.3 61.3095 7.572C61.0455 7.836 60.8855 8.196 60.8295 8.652H63.5415ZM68.0374 12H66.9094L65.0014 6.528H66.0334L67.4494 10.908H67.4974L68.9134 6.528H69.9454L68.0374 12Z" fill="black"/>
<rect width="18" height="18" rx="2" fill="#0085D0"/>
<path d="M7.18543 11.44L2.68543 8.97L7.18543 6.5V7.19L3.82543 8.97L7.18543 10.75V11.44ZM7.7498 13.4L9.5998 4.99H10.2498L8.3998 13.4H7.7498ZM15.3202 8.97L10.8202 11.44V10.75L14.1802 8.97L10.8202 7.19V6.5L15.3202 8.97Z" fill="white"/>
<path d="M7.18543 11.44L7.12769 11.5452L7.30543 11.6428V11.44H7.18543ZM2.68543 8.97L2.62769 8.8648L2.43604 8.97L2.62769 9.0752L2.68543 8.97ZM7.18543 6.5H7.30543V6.29724L7.12769 6.3948L7.18543 6.5ZM7.18543 7.19L7.24161 7.29604L7.30543 7.26223V7.19H7.18543ZM3.82543 8.97L3.76925 8.86396L3.56909 8.97L3.76925 9.07604L3.82543 8.97ZM7.18543 10.75H7.30543V10.6778L7.24161 10.644L7.18543 10.75ZM7.24317 11.3348L2.74317 8.8648L2.62769 9.0752L7.12769 11.5452L7.24317 11.3348ZM2.74317 9.0752L7.24317 6.6052L7.12769 6.3948L2.62769 8.8648L2.74317 9.0752ZM7.06543 6.5V7.19H7.30543V6.5H7.06543ZM7.12925 7.08396L3.76925 8.86396L3.88161 9.07604L7.24161 7.29604L7.12925 7.08396ZM3.76925 9.07604L7.12925 10.856L7.24161 10.644L3.88161 8.86396L3.76925 9.07604ZM7.06543 10.75V11.44H7.30543V10.75H7.06543ZM7.7498 13.4L7.63261 13.3742L7.60054 13.52H7.7498V13.4ZM9.5998 4.99V4.87H9.50333L9.48261 4.96422L9.5998 4.99ZM10.2498 4.99L10.367 5.01578L10.3991 4.87H10.2498V4.99ZM8.3998 13.4V13.52H8.49628L8.517 13.4258L8.3998 13.4ZM7.867 13.4258L9.717 5.01578L9.48261 4.96422L7.63261 13.3742L7.867 13.4258ZM9.5998 5.11H10.2498V4.87H9.5998V5.11ZM10.1326 4.96422L8.28261 13.3742L8.517 13.4258L10.367 5.01578L10.1326 4.96422ZM8.3998 13.28H7.7498V13.52H8.3998V13.28ZM15.3202 8.97L15.3779 9.0752L15.5696 8.97L15.3779 8.8648L15.3202 8.97ZM10.8202 11.44H10.7002V11.6428L10.8779 11.5452L10.8202 11.44ZM10.8202 10.75L10.764 10.644L10.7002 10.6778V10.75H10.8202ZM14.1802 8.97L14.2364 9.07604L14.4365 8.97L14.2364 8.86396L14.1802 8.97ZM10.8202 7.19H10.7002V7.26223L10.764 7.29604L10.8202 7.19ZM10.8202 6.5L10.8779 6.3948L10.7002 6.29724V6.5H10.8202ZM15.2625 8.8648L10.7625 11.3348L10.8779 11.5452L15.3779 9.0752L15.2625 8.8648ZM10.9402 11.44V10.75H10.7002V11.44H10.9402ZM10.8764 10.856L14.2364 9.07604L14.124 8.86396L10.764 10.644L10.8764 10.856ZM14.2364 8.86396L10.8764 7.08396L10.764 7.29604L14.124 9.07604L14.2364 8.86396ZM10.9402 7.19V6.5H10.7002V7.19H10.9402ZM10.7625 6.6052L15.2625 9.0752L15.3779 8.8648L10.8779 6.3948L10.7625 6.6052Z" fill="white"/>
</svg>
