<svg width="18" height="18" viewBox="0 0 18 18" fill="none" xmlns="http://www.w3.org/2000/svg">
<rect width="18" height="18" rx="2" fill="url(#paint0_linear_310_968)"/>
<path d="M4.70583 5.26832V7.36832C4.70583 7.82432 4.65783 8.18032 4.56183 8.43632C4.47383 8.68432 4.28583 8.87232 3.99783 9.00032C4.28583 9.12832 4.47383 9.32032 4.56183 9.57632C4.65783 9.82432 4.70583 10.1763 4.70583 10.6323V12.7323C4.70583 12.9883 4.78983 13.1483 4.95783 13.2123C5.12583 13.2763 5.45783 13.3083 5.95383 13.3083L6.07383 14.0883C4.81783 14.0883 4.07783 13.9003 3.85383 13.5243C3.74983 13.3403 3.69783 13.0563 3.69783 12.6723V10.1283C3.69783 9.73632 3.54183 9.48832 3.22983 9.38432C3.11783 9.34432 3.02583 9.32432 2.95383 9.32432V8.67632C3.27383 8.67632 3.49383 8.54032 3.61383 8.26832C3.66983 8.15632 3.69783 8.02432 3.69783 7.87232V5.32832C3.69783 4.94432 3.74983 4.66032 3.85383 4.47632C4.07783 4.10032 4.81783 3.91232 6.07383 3.91232L5.95383 4.69232C5.45783 4.69232 5.12583 4.72432 4.95783 4.78832C4.78983 4.85232 4.70583 5.01232 4.70583 5.26832ZM11.1331 11.7123V12.5283H6.92114L6.69314 12.1923L9.84914 7.87232H7.17314L7.07714 7.05632H11.0011L11.2171 7.44032L8.14514 11.7123H11.1331ZM13.2989 7.36832V5.26832C13.2989 5.01232 13.2149 4.85232 13.0469 4.78832C12.8789 4.72432 12.5469 4.69232 12.0509 4.69232L11.9309 3.91232C13.1869 3.91232 13.9269 4.10032 14.1509 4.47632C14.2549 4.66032 14.3069 4.94432 14.3069 5.32832V7.87232C14.3069 8.26432 14.4629 8.51232 14.7749 8.61632C14.8869 8.65632 14.9789 8.67632 15.0509 8.67632V9.32432C14.7309 9.32432 14.5109 9.46032 14.3909 9.73232C14.3349 9.84432 14.3069 9.97632 14.3069 10.1283V12.6723C14.3069 13.0563 14.2549 13.3403 14.1509 13.5243C13.9269 13.9003 13.1869 14.0883 11.9309 14.0883L12.0509 13.3083C12.5469 13.3083 12.8789 13.2763 13.0469 13.2123C13.2149 13.1483 13.2989 12.9883 13.2989 12.7323V10.6323C13.2989 10.1763 13.3429 9.82432 13.4309 9.57632C13.5269 9.32032 13.7189 9.12832 14.0069 9.00032C13.7189 8.87232 13.5269 8.68432 13.4309 8.43632C13.3429 8.18032 13.2989 7.82432 13.2989 7.36832Z" fill="white"/>
<path d="M4.56183 8.43632L4.44945 8.39418L4.44874 8.39619L4.56183 8.43632ZM3.99783 9.00032L3.94909 8.89066L3.70236 9.00032L3.94909 9.10998L3.99783 9.00032ZM4.56183 9.57632L4.44826 9.61536L4.44992 9.61964L4.56183 9.57632ZM4.95783 13.2123L4.91511 13.3245L4.91511 13.3245L4.95783 13.2123ZM5.95383 13.3083L6.07243 13.2901L6.05678 13.1883H5.95383V13.3083ZM6.07383 14.0883V14.2083H6.2137L6.19243 14.0701L6.07383 14.0883ZM3.85383 13.5243L3.74933 13.5834L3.75074 13.5857L3.85383 13.5243ZM3.22983 9.38432L3.18946 9.49735L3.19188 9.49816L3.22983 9.38432ZM2.95383 9.32432H2.83383V9.44432H2.95383V9.32432ZM2.95383 8.67632V8.55632H2.83383V8.67632H2.95383ZM3.61383 8.26832L3.50637 8.21459L3.50404 8.21988L3.61383 8.26832ZM3.85383 4.47632L3.75071 4.41489L3.74936 4.41727L3.85383 4.47632ZM6.07383 3.91232L6.19243 3.93057L6.2137 3.79232H6.07383V3.91232ZM5.95383 4.69232V4.81232H6.05678L6.07243 4.71057L5.95383 4.69232ZM4.95783 4.78832L4.91511 4.67618L4.91511 4.67618L4.95783 4.78832ZM4.58583 5.26832V7.36832H4.82583V5.26832H4.58583ZM4.58583 7.36832C4.58583 7.81823 4.53815 8.1577 4.44947 8.39419L4.67419 8.47845C4.77751 8.20294 4.82583 7.83041 4.82583 7.36832H4.58583ZM4.44874 8.39619C4.37389 8.60712 4.21343 8.77318 3.94909 8.89066L4.04656 9.10998C4.35822 8.97146 4.57376 8.76152 4.67492 8.47645L4.44874 8.39619ZM3.94909 9.10998C4.2121 9.22687 4.37298 9.39609 4.44835 9.61533L4.67531 9.53731C4.57467 9.24455 4.35955 9.02977 4.04656 8.89066L3.94909 9.10998ZM4.44992 9.61964C4.53807 9.84735 4.58583 10.1821 4.58583 10.6323H4.82583C4.82583 10.1706 4.77759 9.80129 4.67374 9.533L4.44992 9.61964ZM4.58583 10.6323V12.7323H4.82583V10.6323H4.58583ZM4.58583 12.7323C4.58583 12.8722 4.60857 12.9972 4.66258 13.1001C4.7181 13.2059 4.80361 13.282 4.91511 13.3245L5.00055 13.1002C4.94404 13.0787 4.90356 13.0428 4.87508 12.9885C4.84508 12.9314 4.82583 12.8485 4.82583 12.7323H4.58583ZM4.91511 13.3245C5.01431 13.3623 5.15208 13.3875 5.32132 13.4038C5.4925 13.4203 5.70364 13.4283 5.95383 13.4283V13.1883C5.70802 13.1883 5.50516 13.1804 5.34434 13.1649C5.18157 13.1492 5.06935 13.1264 5.00055 13.1002L4.91511 13.3245ZM5.83522 13.3266L5.95522 14.1066L6.19243 14.0701L6.07243 13.2901L5.83522 13.3266ZM6.07383 13.9683C5.45028 13.9683 4.96254 13.9215 4.60638 13.831C4.24594 13.7394 4.0441 13.6092 3.95692 13.4629L3.75074 13.5857C3.88756 13.8154 4.16771 13.9672 4.54728 14.0636C4.93112 14.1611 5.44138 14.2083 6.07383 14.2083V13.9683ZM3.9583 13.4653C3.86977 13.3087 3.81783 13.05 3.81783 12.6723H3.57783C3.57783 13.0626 3.62988 13.372 3.74936 13.5834L3.9583 13.4653ZM3.81783 12.6723V10.1283H3.57783V12.6723H3.81783ZM3.81783 10.1283C3.81783 9.91715 3.77587 9.73301 3.6824 9.58443C3.5878 9.43403 3.4467 9.33012 3.26778 9.27048L3.19188 9.49816C3.32496 9.54252 3.41786 9.61461 3.47925 9.71221C3.54179 9.81163 3.57783 9.94749 3.57783 10.1283H3.81783ZM3.27019 9.27131C3.15254 9.22929 3.04564 9.20432 2.95383 9.20432V9.44432C3.00601 9.44432 3.08312 9.45935 3.18947 9.49733L3.27019 9.27131ZM3.07383 9.32432V8.67632H2.83383V9.32432H3.07383ZM2.95383 8.79632C3.13084 8.79632 3.28893 8.75861 3.42193 8.67639C3.55552 8.59381 3.65534 8.47152 3.72362 8.31676L3.50404 8.21988C3.45232 8.33712 3.38214 8.41883 3.29573 8.47225C3.20872 8.52603 3.09681 8.55632 2.95383 8.55632V8.79632ZM3.72116 8.32199C3.78709 8.19013 3.81783 8.03902 3.81783 7.87232H3.57783C3.57783 8.00962 3.55257 8.12251 3.5065 8.21465L3.72116 8.32199ZM3.81783 7.87232V5.32832H3.57783V7.87232H3.81783ZM3.81783 5.32832C3.81783 4.95061 3.86977 4.69198 3.9583 4.53537L3.74936 4.41727C3.62988 4.62866 3.57783 4.93803 3.57783 5.32832H3.81783ZM3.95692 4.53774C4.0441 4.39141 4.24594 4.2612 4.60638 4.16963C4.96254 4.07914 5.45028 4.03232 6.07383 4.03232V3.79232C5.44138 3.79232 4.93112 3.8395 4.54728 3.93701C4.16771 4.03344 3.88756 4.18523 3.75074 4.4149L3.95692 4.53774ZM5.95522 3.89407L5.83522 4.67407L6.07243 4.71057L6.19243 3.93057L5.95522 3.89407ZM5.95383 4.57232C5.70364 4.57232 5.4925 4.58037 5.32132 4.59687C5.15208 4.61318 5.01431 4.63839 4.91511 4.67618L5.00055 4.90046C5.06935 4.87425 5.18157 4.85145 5.34434 4.83577C5.50516 4.82027 5.70802 4.81232 5.95383 4.81232V4.57232ZM4.91511 4.67618C4.80361 4.71866 4.7181 4.79479 4.66258 4.90054C4.60857 5.00341 4.58583 5.12849 4.58583 5.26832H4.82583C4.82583 5.15215 4.84508 5.06923 4.87508 5.0121C4.90356 4.95785 4.94404 4.92198 5.00055 4.90046L4.91511 4.67618ZM11.1331 11.7123H11.2531V11.5923H11.1331V11.7123ZM11.1331 12.5283V12.6483H11.2531V12.5283H11.1331ZM6.92114 12.5283L6.82184 12.5957L6.85755 12.6483H6.92114V12.5283ZM6.69314 12.1923L6.59624 12.1215L6.54639 12.1898L6.59384 12.2597L6.69314 12.1923ZM9.84914 7.87232L9.94604 7.94311L10.0854 7.75232H9.84914V7.87232ZM7.17314 7.87232L7.05396 7.88634L7.06643 7.99232H7.17314V7.87232ZM7.07714 7.05632V6.93632H6.9422L6.95796 7.07034L7.07714 7.05632ZM11.0011 7.05632L11.1057 6.99749L11.0713 6.93632H11.0011V7.05632ZM11.2171 7.44032L11.3146 7.51038L11.3593 7.44822L11.3217 7.38149L11.2171 7.44032ZM8.14514 11.7123L8.04772 11.6423L7.91104 11.8323H8.14514V11.7123ZM11.0131 11.7123V12.5283H11.2531V11.7123H11.0131ZM11.1331 12.4083H6.92114V12.6483H11.1331V12.4083ZM7.02044 12.4609L6.79244 12.1249L6.59384 12.2597L6.82184 12.5957L7.02044 12.4609ZM6.79004 12.2631L9.94604 7.94311L9.75224 7.80153L6.59624 12.1215L6.79004 12.2631ZM9.84914 7.75232H7.17314V7.99232H9.84914V7.75232ZM7.29232 7.8583L7.19632 7.0423L6.95796 7.07034L7.05396 7.88634L7.29232 7.8583ZM7.07714 7.17632H11.0011V6.93632H7.07714V7.17632ZM10.8966 7.11515L11.1126 7.49915L11.3217 7.38149L11.1057 6.99749L10.8966 7.11515ZM11.1197 7.37026L8.04772 11.6423L8.24257 11.7824L11.3146 7.51038L11.1197 7.37026ZM8.14514 11.8323H11.1331V11.5923H8.14514V11.8323ZM12.0509 4.69232L11.9323 4.71057L11.9479 4.81232H12.0509V4.69232ZM11.9309 3.91232V3.79232H11.791L11.8123 3.93057L11.9309 3.91232ZM14.1509 4.47632L14.2554 4.41726L14.254 4.4149L14.1509 4.47632ZM14.7749 8.61632L14.8152 8.50329L14.8128 8.50248L14.7749 8.61632ZM15.0509 8.67632H15.1709V8.55632H15.0509V8.67632ZM15.0509 9.32432V9.44432H15.1709V9.32432H15.0509ZM14.3909 9.73232L14.4983 9.78605L14.5006 9.78076L14.3909 9.73232ZM14.1509 13.5243L14.254 13.5858L14.2553 13.5834L14.1509 13.5243ZM11.9309 14.0883L11.8123 14.0701L11.791 14.2083H11.9309V14.0883ZM12.0509 13.3083V13.1883H11.9479L11.9323 13.2901L12.0509 13.3083ZM13.4309 9.57632L13.3185 9.53418L13.3178 9.53619L13.4309 9.57632ZM14.0069 9.00032L14.0556 9.10998L14.3023 9.00032L14.0556 8.89066L14.0069 9.00032ZM13.4309 8.43632L13.3173 8.47536L13.319 8.47964L13.4309 8.43632ZM13.4189 7.36832V5.26832H13.1789V7.36832H13.4189ZM13.4189 5.26832C13.4189 5.12849 13.3961 5.00341 13.3421 4.90054C13.2866 4.79479 13.2011 4.71866 13.0896 4.67618L13.0041 4.90046C13.0606 4.92198 13.1011 4.95785 13.1296 5.0121C13.1596 5.06923 13.1789 5.15215 13.1789 5.26832H13.4189ZM13.0896 4.67618C12.9904 4.63839 12.8526 4.61318 12.6834 4.59687C12.5122 4.58037 12.301 4.57232 12.0509 4.57232V4.81232C12.2967 4.81232 12.4995 4.82027 12.6603 4.83577C12.8231 4.85145 12.9353 4.87425 13.0041 4.90046L13.0896 4.67618ZM12.1695 4.67407L12.0495 3.89407L11.8123 3.93057L11.9323 4.71057L12.1695 4.67407ZM11.9309 4.03232C12.5544 4.03232 13.0422 4.07914 13.3983 4.16963C13.7587 4.2612 13.9606 4.39141 14.0478 4.53774L14.254 4.4149C14.1171 4.18523 13.837 4.03344 13.4574 3.93701C13.0736 3.8395 12.5633 3.79232 11.9309 3.79232V4.03232ZM14.0464 4.53537C14.1349 4.69198 14.1869 4.95061 14.1869 5.32832H14.4269C14.4269 4.93803 14.3748 4.62866 14.2553 4.41727L14.0464 4.53537ZM14.1869 5.32832V7.87232H14.4269V5.32832H14.1869ZM14.1869 7.87232C14.1869 8.08349 14.2288 8.26763 14.3223 8.41621C14.4169 8.56661 14.558 8.67052 14.7369 8.73016L14.8128 8.50248C14.6797 8.45812 14.5868 8.38603 14.5254 8.28843C14.4629 8.18901 14.4269 8.05315 14.4269 7.87232H14.1869ZM14.7345 8.72933C14.8521 8.77135 14.959 8.79632 15.0509 8.79632V8.55632C14.9987 8.55632 14.9216 8.54129 14.8152 8.50331L14.7345 8.72933ZM14.9309 8.67632V9.32432H15.1709V8.67632H14.9309ZM15.0509 9.20432C14.8738 9.20432 14.7158 9.24203 14.5828 9.32425C14.4492 9.40683 14.3493 9.52912 14.2811 9.68388L14.5006 9.78076C14.5524 9.66352 14.6225 9.58181 14.709 9.52839C14.796 9.47461 14.9079 9.44432 15.0509 9.44432V9.20432ZM14.2835 9.67865C14.2176 9.81051 14.1869 9.96162 14.1869 10.1283H14.4269C14.4269 9.99102 14.4521 9.87813 14.4982 9.78599L14.2835 9.67865ZM14.1869 10.1283V12.6723H14.4269V10.1283H14.1869ZM14.1869 12.6723C14.1869 13.05 14.1349 13.3087 14.0464 13.4653L14.2553 13.5834C14.3748 13.372 14.4269 13.0626 14.4269 12.6723H14.1869ZM14.0478 13.4629C13.9606 13.6092 13.7587 13.7394 13.3983 13.831C13.0422 13.9215 12.5544 13.9683 11.9309 13.9683V14.2083C12.5633 14.2083 13.0736 14.1611 13.4574 14.0636C13.837 13.9672 14.1171 13.8154 14.254 13.5857L14.0478 13.4629ZM12.0495 14.1066L12.1695 13.3266L11.9323 13.2901L11.8123 14.0701L12.0495 14.1066ZM12.0509 13.4283C12.301 13.4283 12.5122 13.4203 12.6834 13.4038C12.8526 13.3875 12.9904 13.3623 13.0896 13.3245L13.0041 13.1002C12.9353 13.1264 12.8231 13.1492 12.6603 13.1649C12.4995 13.1804 12.2967 13.1883 12.0509 13.1883V13.4283ZM13.0896 13.3245C13.2011 13.282 13.2866 13.2059 13.3421 13.1001C13.3961 12.9972 13.4189 12.8722 13.4189 12.7323H13.1789C13.1789 12.8485 13.1596 12.9314 13.1296 12.9885C13.1011 13.0428 13.0606 13.0787 13.0041 13.1002L13.0896 13.3245ZM13.4189 12.7323V10.6323H13.1789V12.7323H13.4189ZM13.4189 10.6323C13.4189 10.1815 13.4627 9.84545 13.544 9.61645L13.3178 9.53619C13.223 9.80319 13.1789 10.1711 13.1789 10.6323H13.4189ZM13.5432 9.61846C13.6262 9.39724 13.7921 9.22708 14.0556 9.10998L13.9581 8.89066C13.6456 9.02956 13.4275 9.2434 13.3185 9.53419L13.5432 9.61846ZM14.0556 8.89066C13.7908 8.77299 13.6252 8.606 13.5428 8.393L13.319 8.47964C13.4285 8.76264 13.6469 8.97165 13.9581 9.10998L14.0556 8.89066ZM13.5443 8.39731C13.4626 8.15956 13.4189 7.81883 13.4189 7.36832H13.1789C13.1789 7.82981 13.2231 8.20108 13.3174 8.47533L13.5443 8.39731Z" fill="white"/>
<defs>
<linearGradient id="paint0_linear_310_968" x1="9" y1="0" x2="9" y2="18" gradientUnits="userSpaceOnUse">
<stop stop-color="#4085F3"/>
<stop offset="1" stop-color="#20B6D2"/>
</linearGradient>
</defs>
</svg>
